# xmcd CD database file
#
# Track frame offsets:
#	150
#	33406
#	53459
#	85752
#	109426
#	135810
#	163166
#	181483
#	229428
#	262751
#
# Disc length: 3848 seconds
#
# Revision: 0
# Processed by: cddbd v1.5.1PL0 Copyright (c) Steve Scherf et al.
# Submitted via: CDex 1.51
#
DISCID=7a0f060a
DTITLE=Sensorium - Celtic Fields
DYEAR=1999
DGENRE=Jazz
TTITLE0=Bone Memories
TTITLE1=From Nowhere
TTITLE2=Towers of Mitchellhill
TTITLE3=Liberty Days
TTITLE4=Mock Turtle Dance
TTITLE5=Siochan
TTITLE6=Miss Sarah M Fadyen
TTITLE7=The Road Beyond Dundee
TTITLE8=Mr M Leod
TTITLE9=Men of Machrie
EXTD=YEAR: 1999
EXTT0=
EXTT1=
EXTT2=
EXTT3=
EXTT4=
EXTT5=
EXTT6=
EXTT7=
EXTT8=
EXTT9=
PLAYORDER=
